<svg width="142" height="20" viewBox="0 0 142 20" fill="none" xmlns="http://www.w3.org/2000/svg">
<path d="M8.63572 20C3.93811 20 0 16.2025 0 11.3924C0 5.37271 5.76653 0 12.1238 0C15.218 0 17.9466 1.46273 19.4655 3.43179L15.5274 6.27286C14.8242 5.17581 13.474 4.36006 11.8143 4.36006C8.18565 4.36006 4.86638 7.70745 4.86638 11.2799C4.86638 13.9241 6.8917 15.6399 9.05766 15.6399C10.5767 15.6399 12.5457 14.7398 13.8397 13.4177L16.8495 16.8214C14.7398 18.6779 11.3924 20 8.63572 20Z" fill="#FC8019"/>
<path d="M26.1166 7.51055C27.4106 5.79466 29.239 4.782 31.2924 4.782L30.758 8.74824C27.8888 8.74824 25.6103 10.4923 24.9633 13.052L23.585 19.6624H18.803L21.8409 5.11955H26.6229L26.1166 7.51055Z" fill="#FC8019"/>
<path d="M43.4755 5.11955H48.2294L45.1914 19.6624H40.4375L40.7751 18.0028C39.453 19.2405 37.7934 20 35.9087 20C32.5613 20 30.3391 17.5246 30.3391 14.0647C30.3391 9.25457 33.8271 4.782 38.4966 4.782C40.5219 4.782 42.1253 5.7384 43.0254 7.31364L43.4755 5.11955ZM37.5402 16.0338C39.6499 16.0338 41.4221 14.346 41.9565 12.3769L42.069 11.8143C42.0972 11.5893 42.1253 11.3924 42.1253 11.1674C42.1253 9.73277 41.1126 8.74824 39.6218 8.74824C37.0901 8.74824 34.9242 11.0267 34.9242 13.5584C34.9242 15.0211 35.965 16.0338 37.5402 16.0338Z" fill="#FC8019"/>
<path d="M52.7927 19.6624L49.5016 5.11955H54.3117L55.9995 14.2053L61.4284 5.11955H66.4636L57.209 19.6624H52.7927Z" fill="#FC8019"/>
<path d="M72.0772 13.5865H68.7016V13.699C68.7016 15.3305 69.658 16.3713 71.2333 16.3713C72.6116 16.3713 74.0744 15.7525 75.1433 14.9367L77.478 17.8622C75.9028 19.2124 73.2586 20 71.2052 20C67.2108 20 64.651 17.4965 64.651 13.7834C64.651 8.83263 68.6454 4.782 73.6243 4.782C76.831 4.782 79.222 6.38537 79.222 8.74824C79.222 11.8706 76.5497 13.699 72.0772 13.5865ZM73.4836 8.41069C71.7959 8.41069 70.3332 9.47961 69.4893 10.9142H72.6116C74.2994 10.9142 75.2839 10.3797 75.312 9.42335C75.312 8.8045 74.5244 8.41069 73.4836 8.41069Z" fill="#FC8019"/>
<path d="M91.4612 20C86.7635 20 82.8254 16.2025 82.8254 11.3924C82.8254 5.37271 88.5919 0 94.9492 0C98.0434 0 100.772 1.46273 102.291 3.43179L98.3529 6.27286C97.6496 5.17581 96.2994 4.36006 94.6398 4.36006C91.0111 4.36006 87.6918 7.70745 87.6918 11.2799C87.6918 13.9241 89.7171 15.6399 91.8831 15.6399C93.4021 15.6399 95.3711 14.7398 96.6651 13.4177L99.6749 16.8214C97.5652 18.6779 94.2178 20 91.4612 20Z" fill="#FC8019"/>
<path d="M114.584 5.11955H119.338L116.3 19.6624H111.546L111.884 18.0028C110.562 19.2405 108.902 20 107.018 20C103.67 20 101.448 17.5246 101.448 14.0647C101.448 9.25457 104.936 4.782 109.605 4.782C111.631 4.782 113.234 5.7384 114.134 7.31364L114.584 5.11955ZM108.649 16.0338C110.759 16.0338 112.531 14.346 113.065 12.3769L113.178 11.8143C113.206 11.5893 113.234 11.3924 113.234 11.1674C113.234 9.73277 112.222 8.74824 110.731 8.74824C108.199 8.74824 106.033 11.0267 106.033 13.5584C106.033 15.0211 107.074 16.0338 108.649 16.0338Z" fill="#FC8019"/>
<path d="M126.18 7.51055C127.474 5.79466 129.302 4.782 131.356 4.782L130.821 8.74824C127.952 8.74824 125.674 10.4923 125.027 13.052L123.648 19.6624H118.866L121.904 5.11955H126.686L126.18 7.51055Z" fill="#FC8019"/>
<path d="M140.835 8.91702H137.825C136.671 14.4866 136.587 14.8242 136.587 15.1617C136.587 15.7806 136.896 16.0338 137.375 16.0338C138.022 16.0338 138.725 15.6962 139.006 15.4149L139.513 18.7342C138.528 19.5218 137.122 20 135.828 20C133.465 20 131.861 18.3966 131.861 16.1744C131.861 15.443 132.03 14.8242 133.268 8.91702H131.355L132.143 5.11955H134.055L134.899 1.12518H139.456L138.612 5.11955H141.622L140.835 8.91702Z" fill="#FC8019"/>
</svg>
