<svg width="20" height="20" viewBox="0 0 20 20" fill="none" xmlns="http://www.w3.org/2000/svg">
<g clip-path="url(#clip0_1341_1163)">
<path d="M10.4885 15.4901C10.1851 15.3202 9.81512 15.3202 9.51165 15.4901L6.0143 17.4478C5.2697 17.8645 4.37875 17.2173 4.54502 16.3803L5.32602 12.449C5.39379 12.1079 5.27945 11.7561 5.0241 11.52L2.08106 8.79857C1.45453 8.21923 1.79481 7.17182 2.64221 7.07132L6.62261 6.59924C6.96795 6.55829 7.26721 6.34086 7.41288 6.02509L9.09205 2.38506C9.44948 1.61024 10.5507 1.61024 10.9081 2.38506L12.5873 6.02509C12.733 6.34086 13.0322 6.55829 13.3776 6.59924L17.358 7.07132C18.2054 7.17182 18.5457 8.21923 17.9191 8.79857L14.9761 11.52C14.7207 11.7561 14.6064 12.1079 14.6742 12.449L15.4552 16.3803C15.6214 17.2173 14.7305 17.8645 13.9859 17.4478L10.4885 15.4901Z" fill="white"/>
</g>
<defs>
<clipPath id="clip0_1341_1163">
<rect width="20" height="20" fill="white"/>
</clipPath>
</defs>
</svg>
